<svg width="100%" height="100%" viewBox="0 0 221 138" version="1.1" xmlns="http://www.w3.org/2000/svg"
     xmlns:xlink="http://www.w3.org/1999/xlink" xml:space="preserve" xmlns:serif="http://www.serif.com/">
    <g>
        <path d="M217.104,11.021c-0.062,-0.15 -0.096,-0.313 -0.112,-0.475c-0.067,-1.675 -0.392,-3.271 -1.204,-4.75c-0.471,-0.863 -0.796,-1.775 -1.417,-2.558c-0.438,-0.538 -0.975,-0.992 -1.596,-1.334c-0.892,-0.471 -1.787,-0.946 -2.796,-1.137c-1.712,-0.33 -3.471,-0.459 -5.208,-0.425c-2.279,0.016 -4.479,0.441 -6.692,0.862c-1.041,0.213 -2.083,0.292 -3.108,0.538c-2.867,0.666 -5.713,1.479 -8.513,2.391c-1.512,0.488 -2.979,1.125 -4.475,1.68c-1.887,0.695 -3.808,1.366 -5.683,2.095c-1.154,0.459 -2.275,1.013 -3.417,1.517c-2.179,0.958 -4.379,1.888 -6.558,2.896c-1.304,0.587 -2.571,1.287 -3.858,1.921c-1.659,0.812 -3.338,1.579 -4.979,2.408c-1.53,0.75 -2.98,1.629 -4.33,2.637c-0.391,0.292 -0.816,0.538 -1.22,0.796c-1.367,0.88 -2.721,1.742 -4.088,2.604c-0.812,0.538 -1.642,1.059 -2.425,1.613c-2.487,1.792 -4.946,3.596 -7.421,5.404c-0.454,0.325 -0.929,0.634 -1.4,0.942c-1.617,1.041 -3.012,2.346 -4.425,3.616c-0.179,0.163 -0.358,0.309 -0.537,0.455l-3.584,2.896c-0.029,0.033 -0.079,0.066 -0.241,0.162c0.129,-0.275 0.195,-0.437 0.275,-0.6c0.716,-1.646 1.466,-3.271 2.133,-4.917c0.571,-1.445 0.942,-2.946 1.121,-4.475c0.117,-1.008 0.033,-2.033 -0.242,-3.012c-0.067,-0.146 -0.083,-0.308 -0.05,-0.471c0.034,-0.163 0.1,-0.325 0.196,-0.454c0.912,-1.238 1.871,-2.408 3.321,-3.096c1.187,-0.6 2.441,-1.042 3.725,-1.3c0.179,-0.033 0.341,-0.083 0.504,-0.146c0.167,-0.083 0.296,-0.196 0.392,-0.358c0.083,-0.146 0.116,-0.325 0.083,-0.504c-0.017,-0.18 -0.1,-0.342 -0.246,-0.459c-0.129,-0.129 -0.308,-0.191 -0.487,-0.179c-0.521,0.034 -1.025,0.1 -1.546,0.179l-0.442,0.067c-0.012,-0.033 -0.012,-0.083 -0.033,-0.112c0.296,-0.117 0.587,-0.246 0.883,-0.359c0.225,-0.067 0.438,-0.146 0.667,-0.229c0.162,-0.079 0.292,-0.229 0.358,-0.408c0.063,-0.163 0.079,-0.359 0.017,-0.534c-0.033,-0.166 -0.134,-0.312 -0.263,-0.425c-0.129,-0.1 -0.308,-0.145 -0.471,-0.129c-0.441,0.017 -0.879,0.113 -1.308,0.259c-1.833,0.8 -3.462,1.92 -4.729,3.516c-0.862,1.075 -1.663,2.196 -2.133,3.517c-0.034,0.129 -0.1,0.242 -0.196,0.325c-0.083,0.096 -0.196,0.162 -0.309,0.196c-0.862,0.341 -1.237,1.041 -1.349,1.904c-0.084,0.537 -0.134,1.075 -0.134,1.625c0,2.654 -0.616,5.208 -1.333,7.75c-0.409,1.479 -0.963,2.929 -1.792,4.229c-0.583,0.896 -1.254,1.725 -1.904,2.588c-0.258,0.358 -0.583,0.67 -0.879,1.012c-0.129,0.179 -0.308,0.325 -0.504,0.438c-0.196,0.112 -0.421,0.195 -0.65,0.212c-0.292,-0.112 -0.442,-0.375 -0.488,-0.7c-0.067,-0.325 0,-0.537 0.325,-0.717c0.634,-0.341 1.058,-0.895 1.479,-1.466c0.963,-1.367 1.305,-2.913 1.384,-4.509c0.05,-0.941 -0.046,-1.904 -0.505,-2.733c-0.729,-1.267 -1.82,-2.179 -3.32,-2.325c-1.188,-0.133 -2.392,-0.067 -3.596,-0.067c-0.292,0 -0.571,0.129 -0.896,0.196c-0,-0.112 0.017,-0.229 0.05,-0.342c0.275,-1.32 0.487,-2.654 0.913,-3.925c0.487,-1.429 1.154,-2.795 1.804,-4.166c0.491,-1.009 1.091,-1.967 1.629,-2.963c0.325,-0.583 0.65,-1.154 0.912,-1.754l1.384,-2.116c0.925,-1.171 1.983,-2.23 3.158,-3.159c4.458,-3.517 10.004,-4.8 16.504,-3.792c2.958,0.455 5.533,0.78 7.679,0.992c0.604,1.204 2.459,2.084 4.671,2.084c2.688,-0 4.867,-1.317 4.867,-2.93c-0,-1.629 -2.179,-2.945 -4.867,-2.945c-2.179,-0 -4.016,0.862 -4.654,2.049c-1.904,-0.195 -4.346,-0.487 -7.437,-0.975c-8.742,-1.337 -14.567,1.546 -17.905,4.2c-2.05,1.609 -3.758,3.613 -5.062,5.875c-0.388,0.701 -1.529,2.651 -1.625,3.026c-0.588,1.091 -1.142,2.216 -1.613,3.37c-0.408,0.975 -0.879,1.904 -1.254,2.896c-0.342,0.863 -0.571,1.775 -0.846,2.671c-0.033,0.112 -0.079,0.213 -0.129,0.342c-3.091,-2.2 -6.021,-1.938 -8.821,0.65c-0.325,-1.042 -0.637,-2.034 -0.946,-3.013c-0.145,-0.504 -0.324,-0.992 -0.537,-1.479c-0.992,-2.033 -1.871,-4.117 -2.996,-6.071l-1.316,-2.296c-0.096,-0.179 -0.23,-0.408 -0.409,-0.716c-1.25,-2 -2.846,-3.775 -4.704,-5.255c-3.333,-2.654 -9.146,-5.537 -17.9,-4.183c-3.096,0.471 -5.521,0.779 -7.442,0.958c-0.621,-1.187 -2.471,-2.049 -4.637,-2.049c-2.7,-0 -4.883,1.316 -4.883,2.945c-0,1.63 2.183,2.946 4.883,2.946c2.196,0 4.054,-0.879 4.654,-2.1c2.15,-0.196 4.721,-0.537 7.7,-0.992c6.496,-0.991 12.029,0.275 16.488,3.792c1.791,1.417 3.32,3.142 4.508,5.096l0.683,1.3c0.375,0.7 0.767,1.383 1.154,2.083c1.075,1.842 2.004,3.792 2.738,5.796c0.487,1.333 0.729,2.783 1.104,4.263c-0.225,-0.05 -0.358,-0.08 -0.471,-0.113c-0.862,-0.262 -1.725,-0.196 -2.587,-0.016c-0.213,0.049 -0.409,0.129 -0.617,0.179c-2.083,0.471 -3.258,1.87 -3.662,3.875c-0.392,2 -0.101,3.937 1.204,5.596c0.325,0.408 0.729,0.75 1.187,1.012c0.571,0.325 0.6,0.908 0.488,1.479c-0.05,0.263 -0.179,0.504 -0.375,0.7c-0.196,0.196 -0.438,0.325 -0.717,0.375c-0.258,0.034 -0.387,-0.129 -0.538,-0.279c-0.583,-0.65 -1.17,-1.3 -1.754,-1.967c-2.166,-2.441 -3.337,-5.354 -4.037,-8.495c-0.229,-1.013 -0.459,-2.021 -0.588,-3.046c-0.146,-1.138 -0.162,-2.279 -0.258,-3.434c-0.05,-0.52 -0.117,-1.041 -0.246,-1.546c-0.05,-0.308 -0.196,-0.587 -0.391,-0.812c-0.196,-0.229 -0.438,-0.408 -0.73,-0.521c-0.166,-0.067 -0.312,-0.162 -0.425,-0.296c-0.112,-0.129 -0.212,-0.275 -0.262,-0.437c-0.713,-1.871 -1.904,-3.433 -3.4,-4.754c-0.975,-0.863 -2.083,-1.625 -3.338,-2.1c-0.341,-0.129 -0.7,-0.225 -1.075,-0.292c-0.55,-0.083 -0.941,0.179 -1.025,0.617c-0.096,0.508 0.163,0.85 0.717,1.025c0.342,0.1 0.667,0.212 0.992,0.346c0.05,0.012 0.1,0.045 0.133,0.095c0.033,0.034 0.046,0.084 0.062,0.146c-0.341,-0.079 -0.666,-0.146 -1.008,-0.196c-0.325,-0.062 -0.666,-0.096 -0.992,-0.079c-0.179,0 -0.341,0.063 -0.487,0.179c-0.133,0.13 -0.212,0.292 -0.229,0.454c-0.034,0.18 -0,0.359 0.083,0.521c0.079,0.146 0.225,0.275 0.388,0.342c0.179,0.083 0.358,0.129 0.554,0.162c1.612,0.28 3.075,0.946 4.492,1.725c0.716,0.409 1.187,1.059 1.724,1.646c0.326,0.375 0.605,0.763 0.863,1.171c0.1,0.163 0.15,0.359 0.1,0.554c-0.487,1.759 -0.342,3.484 0.096,5.242c0.425,1.675 0.996,3.317 1.708,4.896c0.1,0.196 0.163,0.408 0.179,0.637c-0.096,-0.05 -0.196,-0.116 -0.291,-0.179c-1.888,-1.562 -3.759,-3.158 -5.646,-4.704c-0.946,-0.767 -1.938,-1.45 -2.917,-2.167c-1.608,-1.187 -3.221,-2.358 -4.85,-3.529c-0.421,-0.296 -0.896,-0.554 -1.333,-0.833c-1.271,-0.746 -2.538,-1.529 -3.825,-2.263c-1.954,-1.121 -3.921,-2.212 -5.892,-3.316c-0.912,-0.521 -1.825,-1.025 -2.716,-1.596c-2.217,-1.367 -4.542,-2.542 -6.951,-3.534c-1.562,-0.633 -3.108,-1.333 -4.624,-2.083c-2.163,-1.042 -4.409,-1.954 -6.638,-2.817c-2.083,-0.812 -4.138,-1.708 -6.204,-2.57c-0.421,-0.18 -0.829,-0.404 -1.254,-0.6c-1.45,-0.684 -3.009,-1.059 -4.538,-1.5c-1.841,-0.538 -3.679,-1.088 -5.537,-1.625c-1.317,-0.375 -2.667,-0.717 -3.988,-1.075c-2.083,-0.571 -4.2,-0.992 -6.346,-1.238c-0.733,-0.083 -1.466,-0.112 -2.195,-0.162l-2.738,-0.017c-1.413,0.113 -2.812,0.342 -4.1,1.008c-1.496,0.8 -2.8,1.809 -3.596,3.355c-0.262,0.487 -0.587,0.941 -0.733,1.45c-0.309,0.925 -0.554,1.854 -0.7,2.812c-0.213,1.45 -0.275,2.9 -0.413,4.346c-0.025,0.146 -0.058,0.312 -0.091,0.458c-0,0.863 -0.017,1.725 -0.017,2.604c0.05,0.259 0.083,0.538 0.096,0.796c0.033,2.15 0.196,4.279 0.508,6.396c0.534,3.55 1.463,7.017 2.779,10.354c0.713,1.788 1.354,3.613 2.071,5.388c1.042,2.554 2.392,4.929 3.854,7.258c0.392,0.633 0.7,1.3 1.092,1.938c0.812,1.349 1.662,2.683 2.492,4.016c0.683,1.059 1.366,2.133 2.05,3.192c0.7,1.108 1.366,2.229 2.083,3.321c0.437,0.65 0.958,1.271 1.45,1.887c0.488,0.633 1.025,1.238 1.496,1.871c1.108,1.417 2.358,2.704 3.741,3.842c1.417,1.22 2.867,2.408 4.542,3.27c0.996,0.505 2.038,0.946 3.063,1.417c0.275,0.113 0.566,0.229 0.829,0.342c0.033,0.667 0.05,1.304 0.096,1.921c0.179,1.841 0.666,3.646 1.45,5.32c0.845,1.892 1.837,3.713 2.979,5.438c0.521,0.767 1.154,1.467 1.741,2.183c0.521,0.634 1.088,1.221 1.609,1.871c0.7,0.879 8.433,7.208 10.287,8.367c1.792,1.121 3.567,2.229 5.505,3.092c0.404,0.195 0.845,0.358 1.283,0.504c1.4,0.408 2.8,0.795 4.2,1.17c0.846,0.23 1.691,0.459 2.554,0.638c0.504,0.079 1.025,0.146 1.546,0.175c0.408,0.033 0.816,0.117 1.221,0.117c1.758,0.033 3.516,0.129 5.258,0.016c1.333,-0.1 2.688,-0.425 4.004,-0.733c1.921,-0.454 3.696,-1.35 5.209,-2.637c0.341,-0.292 0.65,-0.6 0.974,-0.913c0.051,-0.029 0.1,-0.063 0.146,-0.079c0.05,-0.017 0.117,-0.017 0.167,-0.017c-0.067,0.163 -0.117,0.342 -0.196,0.504c-0.604,1.467 -1.108,2.946 -1.321,4.525c-0.112,0.829 -0.016,1.579 0.521,2.263c0.129,0.196 0.213,0.421 0.213,0.65c0.095,2.362 -0.325,4.721 -1.205,6.9c-0.262,0.717 -0.683,1.371 -1.22,1.904c-0.259,0.229 -0.454,0.521 -0.684,0.8c-0.275,0.292 -0.554,0.583 -0.829,0.896c-0.083,0.079 -0.162,0.162 -0.246,0.242c-0.129,0.179 -0.212,0.374 -0.079,0.604c0.046,0.095 0.129,0.162 0.225,0.212c0.117,0.046 0.213,0.046 0.325,0.017c0.263,-0.05 0.521,-0.15 0.75,-0.296c0.342,-0.275 0.667,-0.583 0.975,-0.896c0.329,-0.325 0.638,-0.633 0.963,-0.942c0.066,-0.05 0.146,-0.099 0.246,-0.116c0.012,0.116 0.012,0.229 -0,0.358c-0.263,0.621 -0.605,1.192 -1.042,1.679c-0.229,0.242 -0.408,0.521 -0.538,0.813c-0.033,0.096 -0.033,0.179 -0.016,0.275c0.016,0.1 0.046,0.179 0.095,0.262c0.113,0.196 0.342,0.113 0.521,0.034c0.767,-0.375 1.45,-0.829 1.905,-1.596c0.441,-0.7 0.8,-1.467 1.041,-2.263c0.358,-1.154 0.784,-2.296 1.142,-3.433c0.437,-1.433 0.421,-2.883 0.325,-4.346c-0.033,-0.471 -0.117,-0.929 -0.129,-1.4c-0,-0.212 0.029,-0.504 0.175,-0.65c0.733,-0.783 1.075,-1.758 1.304,-2.766c0.454,-1.892 0.846,-3.796 1.287,-5.7c0.359,-1.563 0.713,-3.142 1.188,-4.688c0.341,-1.121 0.879,-2.196 1.316,-3.304l0.1,-0.309l0.08,0.017l-0.05,0.325c-0.488,2.313 -1.042,4.625 -1.138,7c-0.083,1.529 -0.112,3.042 -0.112,4.558c-0,1.317 0.079,2.651 0.145,3.971c0.08,1.625 0.309,3.254 0.684,4.85c0.342,1.434 0.571,2.896 0.958,4.313c0.588,2.196 1.159,4.429 2.246,6.429c1.321,2.408 2.542,4.867 4.104,7.129c0.863,1.238 1.804,2.392 2.829,3.484c0.784,0.845 1.5,1.741 2.296,2.57c0.992,1.042 2.084,1.988 3.288,2.784c0.425,0.279 0.829,0.575 1.237,0.862c0.829,0.617 1.808,1.009 2.833,1.125c0.08,0.013 0.146,0.046 0.196,0.096l1.642,-0c0.033,-0.033 0.05,-0.067 0.083,-0.083c2.05,-0.354 3.63,-1.48 4.996,-3.009c0.975,-1.108 2.017,-2.166 2.996,-3.27c0.421,-0.505 0.829,-1.026 1.204,-1.563c0.392,-0.587 0.763,-1.175 1.154,-1.775c1.238,-1.921 2.492,-3.858 3.713,-5.796c0.291,-0.487 0.487,-1.058 0.733,-1.596c1.088,-2.454 2,-4.979 2.683,-7.583c0.051,-0.213 0.113,-0.408 0.196,-0.6c0.813,-1.971 1.155,-4.071 1.659,-6.138c0.554,-2.295 0.537,-4.637 0.441,-6.966c-0.066,-1.271 -0.279,-2.504 -0.408,-3.758l0,-0.263c0.471,2.083 0.946,4.217 1.45,6.317c0.242,1.041 0.571,2.066 1.35,2.862c0.229,0.229 0.179,0.554 0.129,0.846c-0.162,1.288 -0.196,2.604 -0.079,3.908c0.112,1.254 0.504,2.425 0.913,3.613c0.191,0.65 0.416,1.287 0.679,1.921c0.341,0.75 0.716,1.466 1.154,2.15c0.396,0.633 1.046,0.975 1.712,1.266c0.375,0.163 0.7,-0.112 0.571,-0.487c-0.117,-0.325 -0.308,-0.634 -0.554,-0.879c-0.425,-0.504 -0.783,-1.075 -1.042,-1.675c-0.054,-0.146 -0.066,-0.309 -0.083,-0.471c0.425,0.292 0.817,0.633 1.158,1.008c0.375,0.359 0.734,0.717 1.104,1.058c0.117,0.096 0.246,0.18 0.409,0.225c0.146,0.05 0.292,0.067 0.454,0.034c0.442,-0.034 0.587,-0.375 0.375,-0.746c-0.046,-0.083 -0.096,-0.167 -0.163,-0.229c-0.683,-0.734 -1.366,-1.45 -2,-2.196c-0.57,-0.637 -0.879,-1.433 -1.141,-2.233c-0.667,-1.984 -1.029,-4.034 -0.913,-6.134c0,-0.262 0.067,-0.504 0.213,-0.7c0.246,-0.308 0.408,-0.666 0.504,-1.058c0.083,-0.375 0.083,-0.767 -0,-1.158c-0.175,-0.942 -0.437,-1.888 -0.667,-2.829c-0.062,-0.246 -0.146,-0.471 -0.258,-0.846c0.175,0.162 0.275,0.225 0.375,0.308c0.65,0.617 1.463,1.008 2.246,1.45c1.429,0.779 2.979,1.188 4.587,1.4c1.35,0.175 2.705,0.308 4.054,0.438c1.905,0.179 3.826,0.079 5.68,-0.292c2.346,-0.459 4.687,-0.979 6.933,-1.775c0.308,-0.113 0.621,-0.246 0.929,-0.375c1.871,-0.946 3.775,-1.809 5.583,-2.896c1.805,-1.075 3.5,-2.313 5.209,-3.55c0.487,-0.375 1.008,-0.733 1.529,-1.058c1.204,-0.717 2.196,-1.659 3.142,-2.684c0.554,-0.621 1.154,-1.204 1.775,-1.741c2.683,-2.409 4.816,-5.354 6.266,-8.642c0.617,-1.433 1.025,-2.95 1.188,-4.496c0.179,-1.154 0.179,-2.308 0.033,-3.45c0.275,-0.146 0.521,-0.325 0.763,-0.437c1.512,-0.7 2.883,-1.613 4.25,-2.554c1.121,-0.767 2.262,-1.534 3.383,-2.296c0.262,-0.196 0.521,-0.409 0.75,-0.65c1.3,-1.288 2.571,-2.609 3.875,-3.875c0.633,-0.667 1.204,-1.384 1.692,-2.167c0.275,-0.454 0.583,-0.908 0.895,-1.367c1.088,-1.562 2.246,-3.091 3.255,-4.704c0.896,-1.417 1.641,-2.912 2.458,-4.379c0.554,-1.008 1.121,-2 1.675,-3.008c1.317,-2.375 2.475,-4.85 3.467,-7.392c1.596,-3.938 3.012,-7.925 4.07,-12.025c0.405,-1.612 0.717,-3.242 0.896,-4.883c0.13,-1.238 0.342,-2.459 0.504,-3.696c0.046,-0.421 0.046,-0.846 0.08,-1.271c0.016,-0.258 -0.113,-0.55 0.112,-0.779l0,-4.8Zm-128.887,24.833l0.05,0.034l-0.034,0.049l-0.05,-0.049l0.034,-0.034Zm-5.713,61.721l-0.162,0.146l-0.017,-0.196l0.196,-0.129c-0.017,0.066 -0.017,0.112 -0.017,0.179Zm0.096,-0.246c-0.017,-0.017 -0.033,-0.029 -0.017,-0.046c0,0 0.017,-0.016 0.034,-0.016l0.016,0.033l-0.033,0.029Z" style="fill-rule:nonzero;"/>
    </g>
</svg>
